{"title":"The.Amazing.Spider-Man.2.2014.720p.WEB-DL.DD5.1.H.264-HDCL","uid":10626044,"size":4750395347,"categoryP":"video","categoryS":"hd___movies","magnet":"?xt=urn:btih:ab7081b1ef538f015d5503bcd342245f6a1f6b0c&amp;dn=The.Amazing.Spider-Man.2.2014.720p.WEB-DL.DD5.1.H.264-HDCL&amp;tr=udp%3A%2F%2Ftracker.openbittorrent.com%3A80&amp;tr=udp%3A%2F%2Fopen.demonii.com%3A1337&amp;tr=udp%3A%2F%2Ftracker.coppersurfer.tk%3A6969&amp;tr=udp%3A%2F%2Fexodus.desync.com%3A6969","seeders":2,"leechers":0,"uploader":"xxxlavalxxx","files":-1,"time":1406232345,"description":"[IMG]http://i.imgur.com/BhedErO.jpg[/IMG]\n\n &lt;a href=&quot;\nhttp://www.imdb.com/title/tt1872181/&quot; rel=&quot;nofollow&quot; target=&quot;_NEW&quot;&gt;\nhttp://www.imdb.com/title/tt1872181/&lt;/a&gt;\n\n\nPeter Parker runs the gauntlet as the mysterious company Oscorp sends up a slew of supervillains against him, impacting on his life.\n\nDirector: Marc Webb\nWriters: Alex Kurtzman (screenplay), Roberto Orci (screenplay)\nStars: Andrew Garfield, Emma Stone, Jamie Foxx\nGenres: Action | Adventure | Fantasy\nCountry: USA\nLanguage: English\n\n\nFormat                                   : Matroska\nFormat version                           : Version 2\nFile size                                : 4.42 GiB\nDuration                                 : 2h 21mn\nOverall bit rate                         : 4 474 Kbps\nMovie name                               : The Amazing Spider-Man 2 (2014) - Release for HDCLUB\nEncoded date                             : UTC 2014-07-23 22:50:47\nWriting application                      : mkvmerge v3.4.0 ('Rapunzel') built on May 15 2010 09:38:20\nWriting library                          : libebml v0.8.0 + libmatroska v0.9.0\n\nVideo\nID                                       : 1\nFormat                                   : AVC\nFormat/Info                              : Advanced Video Codec\nFormat profile                           : &lt;a class=&quot;__cf_email__&quot; href=&quot;/cdn-cgi/l/email-protection&quot; data-cfemail=&quot;95d8f4fcfbd5d9a6bba4&quot;&gt;[email&amp;#160;protected]&lt;/a&gt;&lt;script cf-hash='f9e31' type=&quot;text/javascript&quot;&gt;\n/* &lt;![CDATA[ */!function(){try{var t=&quot;currentScript&quot;in document?document.currentScript:function(){for(var t=document.getElementsByTagName(&quot;script&quot;),e=t.length;e--;)if(t[e].getAttribute(&quot;cf-hash&quot;))return t[e]}();if(t&amp;&amp;t.previousSibling){var e,r,n,i,c=t.previousSibling,a=c.getAttribute(&quot;data-cfemail&quot;);if(a){for(e=&quot;&quot;,r=parseInt(a.substr(0,2),16),n=2;a.length-n;n+=2)i=parseInt(a.substr(n,2),16)^r,e+=String.fromCharCode(i);e=document.createTextNode(e),c.parentNode.replaceChild(e,c)}}}catch(u){}}();/* ]]&gt; */&lt;/script&gt;\nFormat settings, CABAC                   : No\nFormat settings, ReFrames                : 2 frames\nCodec ID                                 : V_MPEG4/ISO/AVC\nDuration                                 : 2h 21mn\nBit rate                                 : 4 001 Kbps\nWidth                                    : 1 280 pixels\nHeight                                   : 532 pixels\nDisplay aspect ratio                     : 2.40:1\nFrame rate                               : 23.976 fps\nColor space                              : YUV\nChroma subsampling                       : 4:2:0\nBit depth                                : 8 bits\nScan type                                : Progressive\nBits/(Pixel*Frame)                       : 0.245\nStream size                              : 3.96 GiB (89%)\nTitle                                    : The Amazing Spider-Man 2 (2014) - Release for HDCLUB\nLanguage                                 : English\nDefault                                  : Yes\nForced                                   : No\nColor primaries                          : BT.709-5, BT.1361, IEC 61966-2-4, SMPTE RP177\nTransfer characteristics                 : BT.709-5, BT.1361\nMatrix coefficients                      : BT.709-5, BT.1361, IEC 61966-2-4 709, SMPTE RP177\n\nAudio\nID                                       : 2\nFormat                                   : AC-3\nFormat/Info                              : Audio Coding 3\nMode extension                           : CM (complete main)\nCodec ID                                 : A_AC3\nDuration                                 : 2h 21mn\nBit rate mode                            : Constant\nBit rate                                 : 384 Kbps\nChannel(s)                               : 6 channels\nChannel positions                        : Front: L C R, Side: L R, LFE\nSampling rate                            : 48.0 KHz\nBit depth                                : 16 bits\nCompression mode                         : Lossy\nStream size                              : 389 MiB (9%)\nTitle                                    : AC3 5.1 @ 384 kbps\nLanguage                                 : English\nDefault                                  : Yes\nForced                                   : No\n\n\nscreens\n &lt;a href=&quot;\nhttp://i.imgur.com/zuVa03U.jpg&quot; rel=&quot;nofollow&quot; target=&quot;_NEW&quot;&gt;\nhttp://i.imgur.com/zuVa03U.jpg&lt;/a&gt; &lt;a href=&quot;\nhttp://i.imgur.com/fcyr8mJ.jpg&quot; rel=&quot;nofollow&quot; target=&quot;_NEW&quot;&gt;\nhttp://i.imgur.com/fcyr8mJ.jpg&lt;/a&gt; &lt;a href=&quot;\nhttp://i.imgur.com/9ODdo8W.jpg&quot; rel=&quot;nofollow&quot; target=&quot;_NEW&quot;&gt;\nhttp://i.imgur.com/9ODdo8W.jpg&lt;/a&gt; &lt;a href=&quot;\nhttp://i.imgur.com/Oh1Ba5k.jpg&quot; rel=&quot;nofollow&quot; target=&quot;_NEW&quot;&gt;\nhttp://i.imgur.com/Oh1Ba5k.jpg&lt;/a&gt; &lt;a href=&quot;\nhttp://i.imgur.com/WINbVjq.jpg&quot; rel=&quot;nofollow&quot; target=&quot;_NEW&quot;&gt;\nhttp://i.imgur.com/WINbVjq.jpg&lt;/a&gt;","torrent":{"xt":"urn:btih:ab7081b1ef538f015d5503bcd342245f6a1f6b0c","amp;dn":"The.Amazing.Spider-Man.2.2014.720p.WEB-DL.DD5.1.H.264-HDCL","amp;tr":["udp%3A%2F%2Ftracker.openbittorrent.com%3A80","udp%3A%2F%2Fopen.demonii.com%3A1337","udp%3A%2F%2Ftracker.coppersurfer.tk%3A6969","udp%3A%2F%2Fexodus.desync.com%3A6969"],"infoHash":"ab7081b1ef538f015d5503bcd342245f6a1f6b0c","infoHashBuffer":{"type":"Buffer","data":[171,112,129,177,239,83,143,1,93,85,3,188,211,66,36,95,106,31,107,12]},"announce":[],"urlList":[]}}